<mxfile host="app.diagrams.net" modified="2022-10-17T03:31:43.870Z" agent="5.0 (Windows NT 10.0; Win64; x64) AppleWebKit/537.36 (KHTML, like Gecko) Chrome/106.0.0.0 Safari/537.36 Edg/106.0.1370.47" etag="pZjjP6Mx4P9BUbWDZr1G" version="20.4.0" type="github">
  <diagram id="wEBqfs0fLrA0wYbtQWPo" name="Page-1">
    <mxGraphModel dx="1421" dy="-1411" grid="1" gridSize="10" guides="1" tooltips="1" connect="1" arrows="1" fold="1" page="1" pageScale="1" pageWidth="850" pageHeight="1100" math="0" shadow="0">
      <root>
        <mxCell id="0" />
        <mxCell id="1" parent="0" />
        <mxCell id="65VOUvMgaLMo3-tbhrjl-1" value="End-User" style="swimlane;startSize=20;" parent="1" vertex="1">
          <mxGeometry x="120" y="2480" width="250" height="690" as="geometry" />
        </mxCell>
        <mxCell id="nj590LRYsxGTTs_kBgOg-9" style="edgeStyle=orthogonalEdgeStyle;rounded=0;orthogonalLoop=1;jettySize=auto;html=1;entryX=0.5;entryY=0;entryDx=0;entryDy=0;entryPerimeter=0;exitX=0.496;exitY=0.827;exitDx=0;exitDy=0;exitPerimeter=0;" parent="65VOUvMgaLMo3-tbhrjl-1" source="nj590LRYsxGTTs_kBgOg-10" edge="1">
          <mxGeometry relative="1" as="geometry">
            <mxPoint x="110" y="140" as="targetPoint" />
          </mxGeometry>
        </mxCell>
        <mxCell id="nj590LRYsxGTTs_kBgOg-10" value="" style="ellipse;html=1;shape=startState;fillColor=#000000;strokeColor=#ff0000;" parent="65VOUvMgaLMo3-tbhrjl-1" vertex="1">
          <mxGeometry x="95" y="50" width="30" height="30" as="geometry" />
        </mxCell>
        <mxCell id="zSzXEdfj71QLySuOlww8-1" value="Login Page" style="rounded=0;whiteSpace=wrap;html=1;" parent="65VOUvMgaLMo3-tbhrjl-1" vertex="1">
          <mxGeometry x="50" y="140" width="120" height="60" as="geometry" />
        </mxCell>
        <mxCell id="nj590LRYsxGTTs_kBgOg-3" value="User fills out the login form" style="strokeWidth=2;html=1;shape=mxgraph.flowchart.terminator;whiteSpace=wrap;" parent="65VOUvMgaLMo3-tbhrjl-1" vertex="1">
          <mxGeometry x="60" y="250" width="100" height="60" as="geometry" />
        </mxCell>
        <mxCell id="zSzXEdfj71QLySuOlww8-2" style="edgeStyle=orthogonalEdgeStyle;rounded=0;orthogonalLoop=1;jettySize=auto;html=1;entryX=0.5;entryY=0;entryDx=0;entryDy=0;entryPerimeter=0;" parent="65VOUvMgaLMo3-tbhrjl-1" source="zSzXEdfj71QLySuOlww8-1" target="nj590LRYsxGTTs_kBgOg-3" edge="1">
          <mxGeometry relative="1" as="geometry" />
        </mxCell>
        <mxCell id="nj590LRYsxGTTs_kBgOg-5" value="User clicks login Button" style="strokeWidth=2;html=1;shape=mxgraph.flowchart.terminator;whiteSpace=wrap;" parent="65VOUvMgaLMo3-tbhrjl-1" vertex="1">
          <mxGeometry x="60" y="370" width="100" height="60" as="geometry" />
        </mxCell>
        <mxCell id="nj590LRYsxGTTs_kBgOg-2" style="edgeStyle=orthogonalEdgeStyle;rounded=0;orthogonalLoop=1;jettySize=auto;html=1;exitX=0.5;exitY=1;exitDx=0;exitDy=0;exitPerimeter=0;entryX=0.5;entryY=0;entryDx=0;entryDy=0;entryPerimeter=0;" parent="65VOUvMgaLMo3-tbhrjl-1" source="nj590LRYsxGTTs_kBgOg-3" target="nj590LRYsxGTTs_kBgOg-5" edge="1">
          <mxGeometry relative="1" as="geometry">
            <mxPoint x="110.23809523809518" y="330" as="targetPoint" />
          </mxGeometry>
        </mxCell>
        <mxCell id="65VOUvMgaLMo3-tbhrjl-2" value="System" style="swimlane;startSize=20;" parent="1" vertex="1">
          <mxGeometry x="370" y="2480" width="430" height="690" as="geometry" />
        </mxCell>
        <mxCell id="65VOUvMgaLMo3-tbhrjl-6" value="No" style="edgeStyle=orthogonalEdgeStyle;rounded=0;orthogonalLoop=1;jettySize=auto;html=1;entryX=0.5;entryY=1;entryDx=0;entryDy=0;entryPerimeter=0;" parent="65VOUvMgaLMo3-tbhrjl-2" source="nj590LRYsxGTTs_kBgOg-8" target="65VOUvMgaLMo3-tbhrjl-4" edge="1">
          <mxGeometry relative="1" as="geometry" />
        </mxCell>
        <mxCell id="65VOUvMgaLMo3-tbhrjl-10" value="Yes" style="edgeStyle=orthogonalEdgeStyle;rounded=0;orthogonalLoop=1;jettySize=auto;html=1;" parent="65VOUvMgaLMo3-tbhrjl-2" source="nj590LRYsxGTTs_kBgOg-8" target="WCZOlGBW4HniHdG6kDoX-1" edge="1">
          <mxGeometry x="-0.7031" relative="1" as="geometry">
            <mxPoint x="-1" as="offset" />
          </mxGeometry>
        </mxCell>
        <mxCell id="nj590LRYsxGTTs_kBgOg-8" value="Does it Pass &lt;br&gt;Client-Side &amp;amp; Server-Side Validation?" style="rhombus;whiteSpace=wrap;html=1;" parent="65VOUvMgaLMo3-tbhrjl-2" vertex="1">
          <mxGeometry x="40" y="335" width="170" height="130" as="geometry" />
        </mxCell>
        <mxCell id="65VOUvMgaLMo3-tbhrjl-4" value="Display Error Message" style="strokeWidth=2;html=1;shape=mxgraph.flowchart.terminator;whiteSpace=wrap;" parent="65VOUvMgaLMo3-tbhrjl-2" vertex="1">
          <mxGeometry x="75" y="140" width="100" height="60" as="geometry" />
        </mxCell>
        <mxCell id="nj590LRYsxGTTs_kBgOg-11" value="" style="ellipse;html=1;shape=endState;fillColor=#000000;strokeColor=#ff0000;" parent="65VOUvMgaLMo3-tbhrjl-2" vertex="1">
          <mxGeometry x="75" y="640" width="30" height="30" as="geometry" />
        </mxCell>
        <mxCell id="65VOUvMgaLMo3-tbhrjl-11" style="edgeStyle=orthogonalEdgeStyle;rounded=0;orthogonalLoop=1;jettySize=auto;html=1;entryX=0.5;entryY=0;entryDx=0;entryDy=0;" parent="65VOUvMgaLMo3-tbhrjl-2" source="65VOUvMgaLMo3-tbhrjl-9" target="nj590LRYsxGTTs_kBgOg-11" edge="1">
          <mxGeometry relative="1" as="geometry" />
        </mxCell>
        <mxCell id="65VOUvMgaLMo3-tbhrjl-9" value="Main Quoting Page" style="rounded=0;whiteSpace=wrap;html=1;" parent="65VOUvMgaLMo3-tbhrjl-2" vertex="1">
          <mxGeometry x="30" y="527.5" width="120" height="60" as="geometry" />
        </mxCell>
        <mxCell id="WCZOlGBW4HniHdG6kDoX-4" value="No" style="edgeStyle=orthogonalEdgeStyle;rounded=0;orthogonalLoop=1;jettySize=auto;html=1;entryX=1;entryY=0.5;entryDx=0;entryDy=0;" edge="1" parent="65VOUvMgaLMo3-tbhrjl-2" source="WCZOlGBW4HniHdG6kDoX-1" target="65VOUvMgaLMo3-tbhrjl-9">
          <mxGeometry x="-0.3333" y="3" relative="1" as="geometry">
            <mxPoint x="1" as="offset" />
          </mxGeometry>
        </mxCell>
        <mxCell id="WCZOlGBW4HniHdG6kDoX-1" value="Does the Username &lt;br&gt;and Password match?" style="rhombus;whiteSpace=wrap;html=1;" vertex="1" parent="65VOUvMgaLMo3-tbhrjl-2">
          <mxGeometry x="240" y="495" width="155" height="125" as="geometry" />
        </mxCell>
        <mxCell id="nj590LRYsxGTTs_kBgOg-4" style="edgeStyle=orthogonalEdgeStyle;rounded=0;orthogonalLoop=1;jettySize=auto;html=1;entryX=0;entryY=0.5;entryDx=0;entryDy=0;" parent="1" source="nj590LRYsxGTTs_kBgOg-5" target="nj590LRYsxGTTs_kBgOg-8" edge="1">
          <mxGeometry relative="1" as="geometry">
            <Array as="points">
              <mxPoint x="350" y="2880" />
              <mxPoint x="350" y="2880" />
            </Array>
          </mxGeometry>
        </mxCell>
        <mxCell id="65VOUvMgaLMo3-tbhrjl-7" style="edgeStyle=orthogonalEdgeStyle;rounded=0;orthogonalLoop=1;jettySize=auto;html=1;entryX=1;entryY=0.5;entryDx=0;entryDy=0;exitX=0;exitY=0.5;exitDx=0;exitDy=0;exitPerimeter=0;" parent="1" source="65VOUvMgaLMo3-tbhrjl-4" target="zSzXEdfj71QLySuOlww8-1" edge="1">
          <mxGeometry relative="1" as="geometry">
            <Array as="points">
              <mxPoint x="420" y="2650" />
              <mxPoint x="420" y="2650" />
            </Array>
          </mxGeometry>
        </mxCell>
      </root>
    </mxGraphModel>
  </diagram>
</mxfile>
